# xmcd
#
# Track frame offsets: 
#        150
#        20002
#        40479
#        58989
#        76713
#        93206
#        111769
#        128004
#        145419
#        163758
#        180539
#        196602
#        212078
#        229262
#        248624
#        268406
#        284704
#        300652
#        320704
#        339374
#
# Disc length: 4710 seconds
#
# Revision: 0
# Processed by: cddbd v1.5.2PL0 Copyright (c) Steve Scherf et al.
# Submitted via: ExactAudioCopy v0.99pb3
#
DISCID=26126414
DTITLE=Various Artist - Nu Urban Traxx #129
DYEAR=2008
DGENRE=Blues
TTITLE0=T Pain Ft Ludacris - Chopped and Screwed
TTITLE1=Kanye West - Love Lockdown
TTITLE2=T.I. Ft Rihanna - Live Your Life
TTITLE3=Ciara Ft T Pain - Go Girl
TTITLE4=Jim Jones Ft Ron Browz - Pop Champagne
TTITLE5=Rihanna - Rehab
TTITLE6=Artists Stand Up To Cancer - Just Stand Up
TTITLE7=Musiq Soulchild - If U Leave
TTITLE8=E40 Ft Shawty Lo - Break Ya Ankles
TTITLE9=Yung Berg t Trey Songz - One Night
TTITLE10=Mariah Carey - I Stay In Love
TTITLE11=Kardinal Official Ft Keri Hudson - Numba 1 (The Tide Is High)
TTITLE12=Estelle Ft Sean Paul - Come Over
TTITLE13=Anothony Hamilton Ft David Banner - Cool
TTITLE14=Jazmine Sullivan - Bust Your Windows
TTITLE15=DJ Khaled Ft T Pain and Kanye West - Go Hard
TTITLE16=Charlie Wilson - There Goes My Baby
TTITLE17=Lil' Wayne Ft Babyface - Comfortable
TTITLE18=Nina Sky Ft Rick Ross - Curtain Call
TTITLE19=Raphael Saadiq - Love That Girl
EXTD=
EXTT0=
EXTT1=
EXTT2=
EXTT3=
EXTT4=
EXTT5=
EXTT6=
EXTT7=
EXTT8=
EXTT9=
EXTT10=
EXTT11=
EXTT12=
EXTT13=
EXTT14=
EXTT15=
EXTT16=
EXTT17=
EXTT18=
EXTT19=
PLAYORDER=
